<?xml version="1.0" encoding="utf-8"?>
<!-- Generator: Adobe Illustrator 15.1.0, SVG Export Plug-In . SVG Version: 6.00 Build 0)  -->
<!DOCTYPE svg PUBLIC "-//W3C//DTD SVG 1.1//EN" "http://www.w3.org/Graphics/SVG/1.1/DTD/svg11.dtd">
<svg version="1.1" id="Ebene_1" xmlns="http://www.w3.org/2000/svg" xmlns:xlink="http://www.w3.org/1999/xlink" x="0px" y="0px"
	 width="453.54px" height="141.73px" viewBox="0 0 453.54 141.73" enable-background="new 0 0 453.54 141.73" xml:space="preserve">
<g>
	<path d="M10.185,66.7V14.726h32.85v8.024h-23.4v13.275H40.41v8.024H19.635V66.7H10.185z"/>
	<path d="M75.586,65.5c-1.751,0.45-4.025,0.913-6.825,1.388c-2.801,0.475-5.876,0.713-9.225,0.713c-3.15,0-5.788-0.45-7.913-1.351
		c-2.125-0.899-3.825-2.149-5.1-3.75c-1.275-1.6-2.188-3.512-2.738-5.737c-0.551-2.225-0.825-4.662-0.825-7.313V27.476h9.075v20.55
		c0,4.2,0.612,7.2,1.837,9c1.225,1.8,3.362,2.7,6.413,2.7c1.099,0,2.262-0.05,3.488-0.15c1.225-0.1,2.137-0.225,2.737-0.375V27.476
		h9.075V65.5z"/>
	<path d="M77.46,47.125c0-2.899,0.45-5.612,1.35-8.138c0.9-2.523,2.187-4.712,3.862-6.563c1.675-1.849,3.712-3.3,6.112-4.35
		c2.4-1.05,5.1-1.575,8.1-1.575c3.7,0,7.2,0.675,10.5,2.025l-1.95,7.425c-1.05-0.45-2.238-0.825-3.563-1.125
		c-1.326-0.3-2.738-0.45-4.238-0.45c-3.551,0-6.25,1.113-8.1,3.338c-1.85,2.226-2.775,5.362-2.775,9.412
		c0,3.9,0.875,6.988,2.625,9.263c1.75,2.275,4.699,3.412,8.85,3.412c1.549,0,3.075-0.149,4.575-0.449
		c1.5-0.301,2.799-0.676,3.9-1.125l1.275,7.5c-1.001,0.5-2.513,0.95-4.538,1.35s-4.113,0.6-6.262,0.6
		c-3.351,0-6.263-0.513-8.738-1.537s-4.526-2.449-6.15-4.275c-1.625-1.824-2.838-3.999-3.638-6.524
		C77.86,52.813,77.46,50.076,77.46,47.125z"/>
	<path d="M118.859,42.775c1.149-1.2,2.374-2.487,3.675-3.862c1.3-1.375,2.575-2.75,3.825-4.125c1.249-1.375,2.438-2.7,3.563-3.976
		c1.125-1.274,2.087-2.387,2.888-3.337h10.725c-2.494,2.801-5.127,5.699-7.895,8.699s-5.549,5.926-8.343,8.775
		c1.497,1.25,3.067,2.764,4.714,4.537c1.646,1.775,3.243,3.664,4.79,5.663c1.547,2,2.993,4.001,4.341,6
		c1.348,2,2.471,3.851,3.367,5.55h-10.5c-0.899-1.549-1.938-3.175-3.111-4.875c-1.176-1.699-2.438-3.35-3.788-4.95
		c-1.35-1.6-2.726-3.112-4.125-4.537c-1.4-1.425-2.775-2.637-4.125-3.638v18h-9.075V10l9.075-1.5V42.775z"/>
	<path d="M167.084,67.825c-3.551,0-6.601-0.514-9.149-1.537c-2.551-1.024-4.664-2.463-6.338-4.313
		c-1.676-1.85-2.914-4.024-3.713-6.525c-0.801-2.5-1.199-5.25-1.199-8.25V14.726h9.524V46.3c0,2.352,0.263,4.363,0.788,6.038
		c0.524,1.676,1.274,3.037,2.25,4.087c0.975,1.051,2.124,1.826,3.449,2.325c1.324,0.501,2.813,0.75,4.463,0.75s3.15-0.249,4.5-0.75
		c1.35-0.499,2.512-1.274,3.487-2.325c0.976-1.05,1.726-2.411,2.25-4.087c0.524-1.675,0.788-3.687,0.788-6.038V14.726h9.524V47.2
		c0,3-0.413,5.75-1.237,8.25c-0.825,2.501-2.076,4.676-3.75,6.525c-1.676,1.85-3.813,3.288-6.412,4.313
		C173.708,67.312,170.634,67.825,167.084,67.825z"/>
	<path d="M227.158,47.125c0,3-0.388,5.751-1.163,8.25c-0.775,2.501-1.887,4.65-3.337,6.45s-3.263,3.2-5.438,4.2
		c-2.175,0.999-4.638,1.5-7.388,1.5c-1.85,0-3.551-0.226-5.1-0.675c-1.551-0.45-2.826-0.949-3.825-1.5v15.225h-9.075V28.75
		c1.85-0.499,4.125-0.975,6.825-1.425s5.55-0.675,8.55-0.675c3.1,0,5.875,0.476,8.325,1.425c2.449,0.95,4.538,2.313,6.263,4.088
		c1.725,1.775,3.049,3.926,3.975,6.449C226.695,41.138,227.158,43.976,227.158,47.125z M217.858,47.275c0-4.05-0.913-7.2-2.738-9.45
		s-4.762-3.375-8.813-3.375c-0.85,0-1.737,0.037-2.662,0.112c-0.926,0.075-1.838,0.238-2.737,0.487v22.426
		c0.8,0.551,1.862,1.063,3.188,1.537c1.324,0.476,2.737,0.713,4.237,0.713c3.301,0,5.712-1.125,7.238-3.375
		C217.095,54.101,217.858,51.075,217.858,47.275z"/>
	<path d="M289.632,66.7c-1.701-2.85-3.601-5.912-5.7-9.188c-2.101-3.274-4.275-6.574-6.525-9.9c-2.25-3.324-4.538-6.549-6.862-9.675
		c-2.325-3.124-4.537-5.937-6.638-8.438v37.2h-9.3V14.726h7.725c2,2.1,4.15,4.588,6.45,7.462c2.3,2.876,4.612,5.863,6.938,8.963
		c2.325,3.101,4.575,6.213,6.75,9.337c2.175,3.126,4.112,6.038,5.813,8.738v-34.5h9.375V66.7H289.632z"/>
	<path d="M353.789,72.476c1.975,0.399,4.112,0.6,6.412,0.6c3.649,0,6.25-0.75,7.801-2.25c1.549-1.5,2.324-3.726,2.324-6.675v-1.5
		c-0.899,0.45-2.088,0.899-3.563,1.35s-3.162,0.675-5.063,0.675c-2.5,0-4.788-0.399-6.862-1.199c-2.075-0.8-3.851-1.975-5.325-3.525
		c-1.475-1.549-2.625-3.487-3.449-5.813c-0.825-2.325-1.238-5.012-1.238-8.063c0-2.85,0.438-5.475,1.313-7.875
		s2.149-4.449,3.825-6.15c1.675-1.699,3.713-3.024,6.112-3.975c2.4-0.949,5.125-1.425,8.176-1.425c2.949,0,5.749,0.225,8.399,0.675
		c2.649,0.45,4.899,0.926,6.75,1.425v33.976c0,6.249-1.588,10.824-4.763,13.725c-3.176,2.899-8.037,4.35-14.587,4.35
		 M354.127,46.075c0,3.851,0.836,6.663,2.512,8.438c1.675,1.775,3.837,2.662,6.488,2.662c1.449,0,2.813-0.199,4.087-0.6
		c1.275-0.399,2.313-0.874,3.112-1.425V34.825c-0.65-0.15-1.45-0.287-2.399-0.412c-0.95-0.125-2.15-0.188-3.601-0.188
		c-3.3,0-5.825,1.087-7.574,3.262C355.001,39.663,354.127,42.525,354.127,46.075z"/>
	<path d="M383.452,66.7V10l9.074-1.5v19.425c1-0.349,2.162-0.648,3.488-0.899c1.324-0.25,2.637-0.375,3.938-0.375
		c3.149,0,5.762,0.438,7.837,1.313c2.074,0.875,3.737,2.1,4.987,3.675s2.138,3.463,2.663,5.662c0.524,2.201,0.787,4.65,0.787,7.351
		V66.7h-9.075V46.075c0-2.1-0.138-3.887-0.412-5.362c-0.275-1.475-0.726-2.675-1.35-3.601c-0.626-0.924-1.463-1.6-2.513-2.024
		s-2.351-0.638-3.9-0.638c-1.2,0-2.426,0.125-3.675,0.375c-1.25,0.251-2.175,0.476-2.775,0.675v31.2H383.452z"/>
	<path d="M419.825,17.125l9.075-1.5v11.851h13.949v7.574H428.9v15.976c0,3.149,0.499,5.399,1.5,6.75
		c0.999,1.35,2.699,2.024,5.1,2.024c1.65,0,3.112-0.174,4.388-0.524c1.274-0.35,2.287-0.675,3.037-0.976l1.5,7.2
		c-1.05,0.45-2.426,0.913-4.125,1.388c-1.7,0.475-3.7,0.713-6,0.713c-2.801,0-5.138-0.375-7.013-1.125s-3.363-1.838-4.462-3.263
		c-1.101-1.425-1.875-3.15-2.325-5.175c-0.45-2.025-0.675-4.338-0.675-6.938V17.125z"/>
</g>
<path fill-rule="evenodd" clip-rule="evenodd" d="M305.563,57.207c2.956,0,5.911,0,8.867,0c0-7.814-0.017-17.109,0.006-24.415
	c0.007-2.538,3.834-7.411,6.937-7.411c2.06,0,4.245,0.001,5.225,0c2.481,0,6.731,3.792,6.736,7.286c0.007,5.503,0,18.421,0,27.633
	c2.955,0,5.911,0,8.867,0c0,1.031,0,2.063,0,3.094c3.207,0,6.416,0,9.623,0c0,1.718,0,3.437,0,5.154c1.604,0,3.208,0,4.812,0v5.431
	h4.812c0,10.724,0,21.515,0,32.237c-1.604,0-3.207,0-4.812,0v13.748h-4.812v14.023c-15.535,0-31.069,0-46.604,0
	c0-4.423,0-8.913,0-13.336h-4.125c0-2.863,0-5.729,0-8.592c-1.604,0-3.207,0-4.812,0c0-3.414,0-6.896,0-10.311h-4.813
	c0-2.612,0-5.224,0-7.837c-1.58,0-3.161,0-4.741,0c0-2.268,0-4.604,0-6.873h-4.125c0-4.561,0-9.119,0-13.679
	c4.56,0,9.119,0,13.679,0c0,0.664,0,1.329,0,1.993h4.124c0-5.041,0-10.013,0-15.054c1.696,0,3.46,0,5.155,0V57.207z M305.988,97.35
	h-5.581c0-4.788,0-9.715,0-14.504h-5.155c0-1.352,0-2.704,0-4.055h-6.804c0,2.405,0,4.812,0,7.218h4.055c0,1.58,0,3.229,0,4.811
	c1.604,0,3.207,0,4.812,0c0,3.093,0,6.187,0,9.279c1.488,0,2.979,0,4.469,0c0,2.842,0,5.684,0,8.523h5.155c0,3.644,0,7.355,0,10.999
	c1.374,0,2.749,0,4.123,0c0,2.955,0,5.911,0,8.866c11.64,0,23.279,0,34.92,0v-13.679c1.58,0,3.23,0,4.811,0
	c0-3.437,0-6.874,0-10.311c1.604,0,3.209,0,4.813,0c0-9.921,0-19.842,0-29.764h-5.499c0-1.81,0-3.688,0-5.499
	c-1.146,0-2.292,0-3.437,0v15.329h-5.5c0-6.256,0-12.512,0-18.766c-2.497,0-4.995,0-7.492,0c0,5.133,0,10.265,0,15.397
	c-1.833,0-3.666,0-5.499,0c0-15.26-0.018-39.92,0.009-47.033c0.008-1.87-1.006-3.009-2.966-3.009c-1.173,0-0.745,0-2.13,0
	c-1.408,0-2.479,1.566-2.475,2.956c0.02,5.13,0.02,30.387-0.068,45.367c-1.925,0-3.85,0-5.773,0c0-5.591,0.004-11.276,0.004-16.866
	h-8.791L305.988,97.35z"/>
</svg>
