<?xml version="1.0" encoding="utf-8"?>
<!DOCTYPE svg PUBLIC "-//W3C//DTD SVG 1.1//EN" "http://www.w3.org/Graphics/SVG/1.1/DTD/svg11.dtd">
<svg version="1.1" id="Ebene_1" xmlns="http://www.w3.org/2000/svg" xmlns:xlink="http://www.w3.org/1999/xlink" x="0px" y="0px"
	 width="595.28px" height="170.08px" viewBox="0 0 595.28 170.08" enable-background="new 0 0 595.28 170.08" xml:space="preserve">
<g>
	<path fill="#1570AC" d="M57.559,143.758c0,0.777-0.071,1.447-0.212,2.008c-0.143,0.561-0.371,0.998-0.688,1.316
		c-0.317,0.316-0.688,0.572-1.112,0.768c-0.423,0.193-0.847,0.291-1.271,0.291c-1.271,0.195-2.383,0.305-3.335,0.33
		c-0.953,0.023-2.102,0.037-3.441,0.037c-4.73,0-8.614-0.525-11.648-1.572c-3.036-1.049-5.437-2.607-7.201-4.676
		c-1.765-2.072-2.965-4.666-3.6-7.783s-0.953-7.26-0.953-12.422V107c0-3.311-0.301-5.99-0.9-8.037
		c-0.601-2.047-1.519-3.836-2.753-5.371c-1.236-1.535-2.824-2.777-4.765-3.727c-1.942-0.949-4.289-1.521-7.042-1.717
		c-0.636-0.098-1.165-0.231-1.588-0.402c-0.424-0.17-0.76-0.426-1.006-0.768c-0.249-0.34-0.442-0.791-0.583-1.352
		c-0.143-0.56-0.212-1.206-0.212-1.937c0-0.779,0.053-1.437,0.159-1.973c0.106-0.536,0.281-0.986,0.53-1.352
		C6.184,80,6.52,79.744,6.943,79.598c0.423-0.146,0.953-0.267,1.588-0.365c5.223-0.39,9.123-2.131,11.701-5.225
		c2.576-3.093,3.865-7.66,3.865-13.701V48.542c0-5.115,0.334-9.231,1.006-12.349c0.67-3.117,1.906-5.724,3.706-7.819
		c1.8-2.094,4.199-3.665,7.2-4.713c3-1.047,6.83-1.571,11.489-1.571c1.34,0,2.452,0.013,3.335,0.037
		c0.882,0.025,1.959,0.135,3.229,0.329c0.493,0,0.97,0.086,1.43,0.256c0.458,0.171,0.847,0.427,1.165,0.768
		c0.318,0.341,0.546,0.792,0.688,1.352c0.141,0.561,0.212,1.231,0.212,2.01c0,0.829-0.071,1.523-0.212,2.083
		c-0.143,0.561-0.371,1.036-0.688,1.425c-0.317,0.391-0.707,0.658-1.165,0.804c-0.46,0.146-0.971,0.219-1.536,0.219l-4.341,0.073
		c-1.694,0-3.142,0.208-4.341,0.621c-1.201,0.415-2.171,1.218-2.912,2.412c-0.741,1.194-1.307,2.838-1.694,4.932
		c-0.389,2.095-0.583,5.311-0.583,9.646v10.669c0,3.557-0.283,6.589-0.847,9.098c-0.566,2.51-1.572,4.762-3.018,6.759
		c-1.448,1.998-3.372,3.715-5.771,5.152c-2.401,1.438-5.437,2.424-9.106,2.959c3.67,0.487,6.706,1.45,9.106,2.886
		c2.399,1.438,4.323,3.168,5.771,5.189c1.446,2.021,2.452,4.273,3.018,6.758c0.564,2.486,0.847,5.531,0.847,9.135v13.885
		c0,4.285,0.176,7.477,0.53,9.572c0.352,2.094,0.9,3.738,1.641,4.932s1.694,2.01,2.859,2.449c1.165,0.438,2.558,0.658,4.183,0.658
		l4.448,0.072c0.635,0,1.199,0.072,1.694,0.219c0.493,0.146,0.9,0.402,1.218,0.768c0.318,0.365,0.546,0.828,0.688,1.389
		C57.487,142.16,57.559,142.881,57.559,143.758z"/>
	<path fill="#1570AC" d="M222.826,83.544c0,0.78-0.053,1.438-0.159,1.973c-0.105,0.537-0.282,0.975-0.529,1.315
		c-0.248,0.342-0.582,0.598-1.006,0.768c-0.424,0.172-0.918,0.281-1.482,0.329c-2.965,0.195-5.437,0.913-7.412,2.155
		c-1.978,1.242-3.584,2.838-4.818,4.787c-1.235,1.949-2.101,4.129-2.594,6.539c-0.495,2.412-0.741,5.371-0.741,8.879v11.766
		c0,5.115-0.354,9.23-1.06,12.35c-0.706,3.117-1.942,5.723-3.706,7.818c-1.765,2.094-4.166,3.664-7.2,4.713
		c-3.036,1.047-6.848,1.572-11.436,1.572c-1.342,0-2.473-0.025-3.389-0.074c-0.918-0.049-2.083-0.146-3.494-0.293
		c-0.495,0-0.953-0.098-1.377-0.291c-0.424-0.195-0.777-0.451-1.059-0.768c-0.283-0.318-0.529-0.756-0.741-1.316
		s-0.318-1.23-0.318-2.008c0-0.83,0.106-1.523,0.318-2.084s0.477-1.035,0.794-1.424c0.317-0.391,0.688-0.658,1.111-0.805
		c0.424-0.146,0.882-0.219,1.377-0.219l4.554-0.072c1.693,0,3.14-0.221,4.341-0.658c1.2-0.439,2.188-1.242,2.965-2.412
		c0.776-1.168,1.341-2.801,1.694-4.896c0.353-2.094,0.529-5.311,0.529-9.645v-10.67c0-3.604,0.3-6.818,0.9-9.645
		c0.599-2.826,1.604-5.455,3.018-7.893c1.411-2.436,3.336-4.531,5.771-6.284c2.436-1.754,5.453-2.898,9.054-3.435
		c-3.601-0.486-6.618-1.266-9.054-2.338c-2.436-1.071-4.36-2.423-5.771-4.056c-1.413-1.631-2.419-3.519-3.018-5.663
		c-0.601-2.143-0.9-5.017-0.9-8.623V49.053c0-4.335-0.177-7.538-0.529-9.609c-0.354-2.07-0.9-3.702-1.642-4.896
		c-0.741-1.193-1.693-2.009-2.858-2.448s-2.56-0.658-4.183-0.658l-4.235-0.073c-0.778,0-1.43-0.073-1.959-0.219
		c-0.53-0.146-0.972-0.402-1.324-0.767c-0.354-0.365-0.601-0.828-0.741-1.388c-0.142-0.56-0.212-1.279-0.212-2.156
		c0-0.779,0.088-1.449,0.265-2.01c0.176-0.56,0.424-1.01,0.741-1.352c0.318-0.34,0.705-0.596,1.165-0.768
		c0.459-0.17,1.006-0.256,1.642-0.256c1.199-0.194,2.259-0.304,3.177-0.329c0.916-0.024,2.047-0.037,3.389-0.037
		c4.659,0,8.506,0.524,11.542,1.571c3.034,1.048,5.435,2.606,7.2,4.677c1.764,2.071,2.981,4.665,3.653,7.782
		c0.67,3.118,1.006,7.259,1.006,12.422v15.053c0,3.313,0.299,5.81,0.899,7.49c0.6,1.681,1.518,3.082,2.754,4.202
		c1.234,1.122,2.822,1.986,4.765,2.594c1.94,0.61,4.288,1.036,7.042,1.279c0.563,0,1.059,0.098,1.482,0.292
		c0.423,0.195,0.775,0.475,1.059,0.84c0.281,0.365,0.477,0.804,0.582,1.315C222.773,82.119,222.826,82.766,222.826,83.544z"/>
</g>
<g>
	<g>
		<path fill="#F59B19" d="M107.459,7.207c0,48.646,0,97.292,0,145.938c0,2.377,0,4.754,0,7.133c0,8.395,13.003,8.469,13.003,0.094
			c0-48.646,0-97.292,0-145.938c0-2.378,0-4.755,0-7.133C120.462-1.095,107.459-1.168,107.459,7.207L107.459,7.207z"/>
	</g>
</g>
<g>
	<g>
		<path fill="#F59B19" d="M84.781,17.127c0,43.465,0,86.93,0,130.395c0,8.395,13.003,8.469,13.003,0.094c0-43.465,0-86.93,0-130.395
			C97.784,8.826,84.781,8.752,84.781,17.127L84.781,17.127z"/>
	</g>
</g>
<g>
	<g>
		<path fill="#F59B19" d="M130.135,17.127c0,43.465,0,86.93,0,130.395c0,8.395,13.004,8.469,13.004,0.094
			c0-43.465,0-86.93,0-130.395C143.139,8.826,130.135,8.752,130.135,17.127L130.135,17.127z"/>
	</g>
</g>
<g>
	<g>
		<path fill="#F59B19" d="M62.104,29.883c0,36.851,0,73.701,0,110.553c0,8.395,13.003,8.469,13.003,0.094
			c0-36.852,0-73.702,0-110.553C75.107,21.582,62.104,21.508,62.104,29.883L62.104,29.883z"/>
	</g>
</g>
<g>
	<g>
		<path fill="#F59B19" d="M152.813,29.883c0,36.851,0,73.701,0,110.553c0,8.395,13.004,8.469,13.004,0.094
			c0-36.852,0-73.702,0-110.553C165.816,21.582,152.813,21.508,152.813,29.883L152.813,29.883z"/>
	</g>
</g>
<g>
	<path fill="#1570AC" d="M250.426,25.104h6.402v45.738h-6.402V25.104z"/>
	<path fill="#1570AC" d="M289.3,67.41c-0.528,0.353-1.551,0.804-3.069,1.353c-1.518,0.551-3.289,0.825-5.313,0.825
		c-2.068,0-4.016-0.33-5.841-0.99c-1.826-0.66-3.422-1.683-4.785-3.069c-1.364-1.386-2.442-3.112-3.234-5.181
		c-0.792-2.067-1.188-4.531-1.188-7.392c0-2.508,0.373-4.807,1.122-6.897c0.747-2.089,1.836-3.894,3.267-5.412
		c1.43-1.518,3.179-2.706,5.247-3.564c2.067-0.858,4.399-1.287,6.996-1.287c2.859,0,5.356,0.209,7.491,0.627
		c2.134,0.418,3.927,0.803,5.379,1.155v30.624c0,5.28-1.364,9.108-4.092,11.484c-2.729,2.376-6.864,3.564-12.408,3.564
		c-2.156,0-4.191-0.177-6.105-0.528c-1.914-0.353-3.575-0.77-4.982-1.254l1.122-5.346c1.231,0.484,2.738,0.913,4.521,1.287
		c1.782,0.374,3.641,0.561,5.577,0.561c3.651,0,6.28-0.726,7.887-2.178c1.605-1.452,2.409-3.762,2.409-6.93V67.41z M289.235,41.934
		c-0.617-0.175-1.442-0.34-2.476-0.495c-1.034-0.154-2.432-0.231-4.19-0.231c-3.301,0-5.842,1.079-7.623,3.234
		c-1.782,2.156-2.674,5.016-2.674,8.58c0,1.98,0.253,3.674,0.76,5.082c0.505,1.409,1.188,2.574,2.046,3.498
		c0.857,0.924,1.848,1.607,2.97,2.046c1.122,0.44,2.277,0.66,3.465,0.66c1.628,0,3.124-0.231,4.488-0.693
		c1.363-0.462,2.442-1,3.234-1.617V41.934z"/>
	<path fill="#1570AC" d="M336.227,53.682c0,2.729-0.396,5.192-1.189,7.392c-0.791,2.201-1.902,4.092-3.332,5.676
		s-3.135,2.805-5.115,3.663c-1.98,0.858-4.137,1.287-6.469,1.287s-4.486-0.429-6.467-1.287c-1.98-0.858-3.686-2.079-5.115-3.663
		s-2.541-3.476-3.334-5.676c-0.791-2.2-1.188-4.663-1.188-7.392c0-2.683,0.396-5.137,1.188-7.359
		c0.793-2.221,1.904-4.125,3.334-5.709s3.135-2.805,5.115-3.663s4.135-1.287,6.467-1.287s4.488,0.429,6.469,1.287
		s3.686,2.079,5.115,3.663s2.541,3.488,3.332,5.709C335.83,48.545,336.227,50.999,336.227,53.682z M329.824,53.682
		c0-3.871-0.869-6.94-2.607-9.207c-1.738-2.266-4.104-3.399-7.096-3.399s-5.357,1.133-7.094,3.399
		c-1.738,2.267-2.607,5.336-2.607,9.207c0,3.873,0.869,6.941,2.607,9.207c1.736,2.267,4.102,3.399,7.094,3.399
		s5.357-1.132,7.096-3.399C328.955,60.624,329.824,57.555,329.824,53.682z"/>
	<path fill="#1570AC" d="M357.543,35.796c0.529,0,1.133,0.033,1.814,0.099c0.682,0.066,1.354,0.154,2.014,0.264
		c0.66,0.11,1.264,0.221,1.814,0.33c0.551,0.11,0.957,0.209,1.223,0.297l-1.057,5.346c-0.484-0.175-1.287-0.385-2.41-0.627
		c-1.121-0.241-2.563-0.363-4.322-0.363c-1.145,0-2.277,0.122-3.398,0.363c-1.123,0.242-1.859,0.407-2.211,0.495v28.842h-6.139
		V37.974c1.453-0.528,3.256-1.023,5.412-1.485S354.859,35.796,357.543,35.796z"/>
	<path fill="#1570AC" d="M428.756,65.298v5.544h-27.523V25.104h6.402v40.194H428.756z"/>
	<path fill="#1570AC" d="M462.414,69.852c-1.408,0.353-3.268,0.726-5.576,1.122c-2.311,0.396-4.984,0.594-8.02,0.594
		c-2.641,0-4.863-0.386-6.666-1.155c-1.805-0.769-3.258-1.858-4.355-3.267c-1.102-1.408-1.893-3.069-2.377-4.983
		c-0.484-1.914-0.727-4.036-0.727-6.369V36.522h6.139v17.952c0,4.181,0.66,7.172,1.98,8.976c1.32,1.805,3.541,2.706,6.666,2.706
		c0.66,0,1.342-0.021,2.045-0.066c0.703-0.043,1.363-0.099,1.98-0.165c0.615-0.066,1.178-0.132,1.684-0.198
		c0.504-0.066,0.867-0.142,1.088-0.231V36.522h6.139V69.852z M442.283,30.187c-1.012,0-1.902-0.363-2.672-1.089
		c-0.771-0.726-1.154-1.66-1.154-2.805c0-1.144,0.383-2.079,1.154-2.805c0.77-0.726,1.66-1.089,2.672-1.089s1.904,0.363,2.674,1.089
		s1.154,1.661,1.154,2.805c0,1.145-0.385,2.079-1.154,2.805S443.295,30.187,442.283,30.187z M454.824,30.187
		c-1.014,0-1.904-0.363-2.674-1.089s-1.154-1.66-1.154-2.805c0-1.144,0.385-2.079,1.154-2.805s1.66-1.089,2.674-1.089
		c1.012,0,1.902,0.363,2.672,1.089s1.156,1.661,1.156,2.805c0,1.145-0.387,2.079-1.156,2.805S455.836,30.187,454.824,30.187z"/>
	<path fill="#1570AC" d="M487.891,71.634c-2.773,0-5.205-0.44-7.293-1.32c-2.092-0.88-3.852-2.112-5.281-3.696
		s-2.498-3.465-3.201-5.643c-0.703-2.178-1.055-4.587-1.055-7.227c0-2.64,0.385-5.059,1.154-7.26c0.77-2.2,1.857-4.103,3.268-5.709
		c1.406-1.605,3.135-2.86,5.18-3.762c2.047-0.901,4.324-1.353,6.832-1.353c1.539,0,3.078,0.132,4.619,0.396
		c1.541,0.264,3.014,0.683,4.422,1.254l-1.385,5.214c-0.924-0.439-1.992-0.792-3.201-1.056c-1.211-0.264-2.498-0.396-3.861-0.396
		c-3.432,0-6.063,1.079-7.887,3.234c-1.826,2.157-2.74,5.303-2.74,9.438c0,1.848,0.209,3.542,0.627,5.082
		c0.418,1.541,1.078,2.861,1.98,3.96c0.902,1.1,2.057,1.947,3.465,2.541c1.408,0.594,3.125,0.891,5.148,0.891
		c1.627,0,3.102-0.153,4.422-0.462c1.32-0.307,2.354-0.637,3.102-0.99l0.859,5.148c-0.354,0.221-0.859,0.429-1.52,0.627
		c-0.658,0.198-1.408,0.373-2.242,0.528c-0.838,0.154-1.729,0.286-2.674,0.396C489.682,71.579,488.77,71.634,487.891,71.634z"/>
	<path fill="#1570AC" d="M516.072,51.966c1.318,1.013,2.715,2.267,4.189,3.762c1.475,1.496,2.926,3.113,4.357,4.851
		c1.428,1.739,2.781,3.498,4.059,5.28c1.275,1.782,2.354,3.443,3.234,4.983h-7.195c-0.924-1.54-1.99-3.112-3.201-4.719
		c-1.211-1.605-2.475-3.145-3.795-4.62c-1.32-1.474-2.662-2.827-4.025-4.059c-1.365-1.231-2.662-2.266-3.895-3.102v16.5h-6.137
		v-50.16l6.137-1.056V50.91c1.057-1.056,2.223-2.221,3.498-3.498c1.275-1.275,2.529-2.574,3.762-3.894
		c1.232-1.32,2.398-2.584,3.498-3.795c1.1-1.209,2.047-2.277,2.838-3.201h7.195c-1.014,1.1-2.113,2.31-3.301,3.63
		s-2.42,2.651-3.695,3.993c-1.277,1.342-2.564,2.684-3.861,4.026C518.436,49.514,517.215,50.778,516.072,51.966z"/>
	<path fill="#1570AC" d="M534.486,53.748c0-3.036,0.439-5.686,1.318-7.953c0.881-2.266,2.047-4.147,3.498-5.643
		c1.453-1.496,3.125-2.617,5.018-3.366c1.891-0.748,3.828-1.122,5.807-1.122c4.621,0,8.162,1.442,10.627,4.323
		c2.463,2.882,3.695,7.271,3.695,13.167c0,0.264,0,0.605,0,1.023c0,0.419-0.021,0.803-0.066,1.155h-23.496
		c0.266,3.564,1.299,6.27,3.104,8.118c1.803,1.848,4.619,2.772,8.447,2.772c2.156,0,3.971-0.187,5.445-0.561
		c1.473-0.373,2.584-0.736,3.332-1.089l0.859,5.148c-0.75,0.396-2.059,0.815-3.928,1.254c-1.871,0.439-3.992,0.66-6.369,0.66
		c-2.992,0-5.576-0.452-7.754-1.353c-2.18-0.901-3.973-2.145-5.379-3.729c-1.41-1.584-2.455-3.465-3.137-5.643
		C534.826,58.731,534.486,56.345,534.486,53.748z M558.047,50.382c0.045-2.772-0.648-5.049-2.078-6.831s-3.398-2.673-5.906-2.673
		c-1.41,0-2.652,0.275-3.73,0.825c-1.078,0.551-1.99,1.266-2.738,2.145c-0.748,0.881-1.332,1.893-1.75,3.036
		c-0.418,1.145-0.691,2.31-0.824,3.498H558.047z"/>
	<path fill="#1570AC" d="M583.59,71.502c-3.785-0.089-6.469-0.901-8.053-2.442c-1.584-1.54-2.375-3.937-2.375-7.194V20.682
		l6.137-1.056v41.25c0,1.013,0.088,1.848,0.264,2.508s0.463,1.188,0.859,1.584c0.395,0.396,0.924,0.693,1.584,0.891
		c0.66,0.198,1.473,0.363,2.441,0.495L583.59,71.502z"/>
</g>
<g>
	<path fill="#1570AC" d="M253.395,125.24c3.547,0,5.32-1.213,5.32-3.641c0-0.746-0.157-1.382-0.473-1.906
		c-0.314-0.525-0.74-0.98-1.277-1.365s-1.149-0.718-1.837-0.998c-0.688-0.279-1.418-0.56-2.188-0.84
		c-0.888-0.303-1.728-0.647-2.521-1.032c-0.793-0.386-1.482-0.841-2.064-1.365c-0.584-0.524-1.045-1.149-1.383-1.872
		c-0.339-0.724-0.508-1.599-0.508-2.625c0-2.123,0.723-3.78,2.17-4.971c1.446-1.189,3.441-1.785,5.985-1.785
		c1.47,0,2.806,0.158,4.008,0.473c1.201,0.315,2.082,0.66,2.642,1.033l-1.085,2.765c-0.489-0.304-1.219-0.601-2.188-0.893
		c-0.968-0.292-2.094-0.438-3.377-0.438c-0.653,0-1.26,0.069-1.82,0.21c-0.56,0.141-1.05,0.35-1.47,0.63s-0.753,0.636-0.998,1.067
		c-0.244,0.432-0.367,0.939-0.367,1.523c0,0.652,0.128,1.201,0.385,1.645s0.618,0.834,1.085,1.172
		c0.467,0.339,1.01,0.648,1.628,0.928c0.618,0.28,1.301,0.561,2.048,0.84c1.05,0.42,2.012,0.84,2.887,1.26s1.634,0.923,2.275,1.506
		s1.138,1.277,1.487,2.082c0.351,0.805,0.525,1.779,0.525,2.923c0,2.124-0.776,3.757-2.328,4.899
		c-1.552,1.145-3.739,1.715-6.563,1.715c-0.957,0-1.837-0.064-2.642-0.191c-0.806-0.129-1.522-0.28-2.153-0.455
		c-0.63-0.176-1.172-0.361-1.627-0.561c-0.455-0.197-0.812-0.367-1.067-0.508l1.015-2.8c0.536,0.304,1.354,0.642,2.45,1.015
		C250.467,125.054,251.808,125.24,253.395,125.24z"/>
	<path fill="#1570AC" d="M282.236,118.555c0,1.447-0.21,2.754-0.63,3.92c-0.42,1.168-1.01,2.171-1.768,3.011
		c-0.759,0.84-1.663,1.487-2.713,1.942s-2.193,0.683-3.43,0.683c-1.237,0-2.38-0.228-3.431-0.683
		c-1.05-0.455-1.954-1.103-2.712-1.942c-0.759-0.84-1.348-1.843-1.768-3.011c-0.42-1.166-0.63-2.473-0.63-3.92
		c0-1.422,0.21-2.724,0.63-3.902c0.42-1.178,1.009-2.188,1.768-3.027c0.758-0.84,1.662-1.487,2.712-1.942
		c1.051-0.455,2.193-0.683,3.431-0.683c1.236,0,2.38,0.228,3.43,0.683s1.954,1.103,2.713,1.942c0.758,0.84,1.348,1.85,1.768,3.027
		C282.026,115.831,282.236,117.133,282.236,118.555z M278.84,118.555c0-2.053-0.461-3.68-1.382-4.882
		c-0.923-1.202-2.177-1.803-3.763-1.803c-1.587,0-2.841,0.601-3.763,1.803s-1.383,2.829-1.383,4.882
		c0,2.055,0.461,3.682,1.383,4.883c0.922,1.202,2.176,1.803,3.763,1.803c1.586,0,2.84-0.601,3.763-1.803
		C278.379,122.236,278.84,120.609,278.84,118.555z"/>
	<path fill="#1570AC" d="M293.925,100.495c0.956,0,1.778,0.07,2.467,0.21c0.688,0.141,1.173,0.269,1.453,0.385l-0.595,2.801
		c-0.28-0.141-0.678-0.274-1.19-0.402c-0.514-0.129-1.144-0.193-1.89-0.193c-1.518,0-2.579,0.415-3.186,1.242
		c-0.606,0.829-0.91,1.943-0.91,3.344v1.574h7v2.73h-7v15.47h-3.255v-19.845c0-2.333,0.571-4.136,1.715-5.408
		C289.678,101.131,291.475,100.495,293.925,100.495z"/>
	<path fill="#1570AC" d="M303.375,109.455h6.895v2.73h-6.895v8.4c0,0.909,0.07,1.662,0.209,2.257
		c0.141,0.595,0.352,1.062,0.631,1.399c0.279,0.339,0.631,0.578,1.051,0.719c0.42,0.139,0.908,0.209,1.469,0.209
		c0.98,0,1.768-0.11,2.363-0.332c0.594-0.222,1.008-0.379,1.242-0.473l0.631,2.695c-0.328,0.163-0.9,0.367-1.717,0.612
		s-1.75,0.367-2.799,0.367c-1.238,0-2.258-0.157-3.063-0.472c-0.805-0.315-1.453-0.788-1.943-1.418s-0.834-1.406-1.031-2.328
		c-0.199-0.921-0.299-1.988-0.299-3.202v-16.239l3.256-0.561V109.455z"/>
	<path fill="#1570AC" d="M329.273,127.655c-0.652-1.681-1.348-3.599-2.082-5.757s-1.406-4.404-2.012-6.738
		c-0.607,2.334-1.273,4.58-1.996,6.738s-1.412,4.076-2.064,5.757h-2.836c-1.072-2.403-2.123-5.146-3.148-8.226
		c-1.027-3.08-1.996-6.404-2.906-9.975h3.5c0.234,1.098,0.514,2.287,0.84,3.57c0.328,1.283,0.672,2.566,1.033,3.85
		s0.74,2.521,1.137,3.711c0.396,1.189,0.771,2.229,1.121,3.114c0.396-1.097,0.787-2.257,1.172-3.482s0.752-2.462,1.104-3.71
		c0.35-1.248,0.682-2.473,0.996-3.675c0.316-1.202,0.59-2.327,0.824-3.378h2.693c0.211,1.051,0.467,2.176,0.771,3.378
		c0.303,1.202,0.629,2.427,0.979,3.675c0.352,1.248,0.719,2.484,1.104,3.71s0.775,2.386,1.172,3.482
		c0.35-0.886,0.719-1.925,1.104-3.114c0.385-1.19,0.764-2.428,1.137-3.711s0.723-2.566,1.051-3.85
		c0.326-1.283,0.605-2.473,0.84-3.57h3.359c-0.91,3.57-1.879,6.895-2.904,9.975c-1.027,3.08-2.078,5.822-3.15,8.226H329.273z"/>
	<path fill="#1570AC" d="M347.475,109c1.307,0,2.408,0.17,3.307,0.508s1.623,0.816,2.17,1.436c0.549,0.618,0.939,1.354,1.174,2.205
		c0.232,0.852,0.35,1.791,0.35,2.816v11.375c-0.279,0.047-0.672,0.111-1.172,0.193c-0.502,0.082-1.068,0.157-1.699,0.227
		c-0.629,0.07-1.313,0.135-2.047,0.193c-0.734,0.058-1.465,0.087-2.188,0.087c-1.027,0-1.973-0.104-2.834-0.315
		c-0.863-0.209-1.611-0.542-2.24-0.997c-0.631-0.454-1.121-1.056-1.471-1.802c-0.35-0.747-0.525-1.646-0.525-2.695
		c0-1.003,0.205-1.867,0.613-2.59s0.963-1.307,1.662-1.75c0.701-0.443,1.518-0.771,2.451-0.98c0.932-0.21,1.912-0.314,2.939-0.314
		c0.326,0,0.664,0.018,1.014,0.053c0.352,0.034,0.684,0.082,0.998,0.139c0.314,0.059,0.59,0.111,0.822,0.158
		c0.234,0.047,0.396,0.082,0.49,0.105v-0.91c0-0.537-0.059-1.068-0.174-1.593c-0.117-0.524-0.328-0.991-0.631-1.399
		s-0.717-0.736-1.242-0.98c-0.525-0.245-1.207-0.367-2.047-0.367c-1.074,0-2.014,0.076-2.818,0.227
		c-0.805,0.152-1.406,0.311-1.803,0.473l-0.385-2.695c0.42-0.186,1.119-0.367,2.1-0.542S346.33,109,347.475,109z M347.754,125.311
		c0.771,0,1.453-0.018,2.049-0.053c0.594-0.035,1.09-0.1,1.486-0.192v-5.425c-0.232-0.117-0.611-0.216-1.137-0.298
		c-0.525-0.081-1.162-0.122-1.908-0.122c-0.49,0-1.01,0.035-1.557,0.104c-0.549,0.07-1.051,0.216-1.506,0.438
		s-0.834,0.524-1.137,0.91c-0.305,0.385-0.455,0.893-0.455,1.522c0,1.167,0.373,1.978,1.119,2.433S346.471,125.311,347.754,125.311z
		"/>
	<path fill="#1570AC" d="M366.584,109.07c0.279,0,0.6,0.018,0.963,0.053c0.361,0.035,0.717,0.082,1.066,0.14
		c0.352,0.059,0.672,0.117,0.963,0.175c0.291,0.059,0.508,0.111,0.648,0.158l-0.561,2.834c-0.258-0.092-0.682-0.203-1.277-0.332
		c-0.596-0.128-1.359-0.192-2.293-0.192c-0.607,0-1.207,0.064-1.803,0.192c-0.594,0.129-0.986,0.217-1.172,0.263v15.295h-3.256
		v-17.431c0.771-0.279,1.727-0.542,2.871-0.787C363.877,109.193,365.16,109.07,366.584,109.07z"/>
	<path fill="#1570AC" d="M372.359,118.59c0-1.609,0.232-3.016,0.699-4.217s1.086-2.199,1.855-2.992s1.656-1.389,2.66-1.785
		c1.002-0.396,2.029-0.596,3.08-0.596c2.449,0,4.328,0.765,5.635,2.293s1.959,3.855,1.959,6.982c0,0.14,0,0.32,0,0.543
		c0,0.222-0.012,0.426-0.035,0.611h-12.459c0.141,1.891,0.688,3.326,1.645,4.306s2.451,1.47,4.48,1.47
		c1.143,0,2.105-0.099,2.887-0.297s1.371-0.391,1.768-0.578l0.455,2.73c-0.396,0.21-1.09,0.432-2.082,0.664
		c-0.992,0.233-2.117,0.351-3.377,0.351c-1.588,0-2.959-0.239-4.113-0.718c-1.154-0.478-2.105-1.137-2.852-1.977
		c-0.748-0.841-1.301-1.838-1.664-2.993C372.539,121.232,372.359,119.967,372.359,118.59z M384.854,116.805
		c0.023-1.469-0.344-2.677-1.102-3.622c-0.76-0.944-1.803-1.417-3.133-1.417c-0.748,0-1.406,0.146-1.979,0.438
		c-0.572,0.291-1.055,0.671-1.451,1.137c-0.398,0.467-0.707,1.004-0.928,1.61c-0.223,0.606-0.367,1.226-0.438,1.854H384.854z"/>
	<path fill="#1570AC" d="M391.924,118.59c0-1.609,0.232-3.016,0.699-4.217s1.086-2.199,1.855-2.992s1.656-1.389,2.66-1.785
		c1.002-0.396,2.029-0.596,3.08-0.596c2.449,0,4.328,0.765,5.635,2.293s1.959,3.855,1.959,6.982c0,0.14,0,0.32,0,0.543
		c0,0.222-0.012,0.426-0.035,0.611h-12.459c0.141,1.891,0.688,3.326,1.645,4.306s2.451,1.47,4.48,1.47
		c1.143,0,2.105-0.099,2.887-0.297s1.371-0.391,1.768-0.578l0.455,2.73c-0.396,0.21-1.09,0.432-2.082,0.664
		c-0.992,0.233-2.117,0.351-3.377,0.351c-1.588,0-2.959-0.239-4.113-0.718c-1.154-0.478-2.105-1.137-2.852-1.977
		c-0.748-0.841-1.301-1.838-1.664-2.993C392.104,121.232,391.924,119.967,391.924,118.59z M404.418,116.805
		c0.023-1.469-0.344-2.677-1.102-3.622c-0.76-0.944-1.803-1.417-3.133-1.417c-0.748,0-1.406,0.146-1.979,0.438
		c-0.572,0.291-1.055,0.671-1.451,1.137c-0.398,0.467-0.707,1.004-0.928,1.61c-0.223,0.606-0.367,1.226-0.438,1.854H404.418z"/>
	<path fill="#1570AC" d="M412.502,109.98c0.748-0.187,1.738-0.385,2.977-0.596c1.236-0.209,2.658-0.314,4.27-0.314
		c1.445,0,2.648,0.205,3.605,0.612c0.955,0.409,1.719,0.979,2.291,1.716c0.572,0.734,0.975,1.615,1.209,2.642
		c0.232,1.027,0.35,2.159,0.35,3.396v10.22h-3.256v-9.521c0-1.119-0.076-2.076-0.227-2.869c-0.152-0.793-0.402-1.436-0.754-1.926
		c-0.35-0.49-0.816-0.846-1.398-1.066c-0.584-0.223-1.309-0.333-2.17-0.333c-0.352,0-0.713,0.012-1.086,0.034
		c-0.373,0.024-0.729,0.053-1.066,0.088c-0.34,0.035-0.643,0.076-0.91,0.123c-0.27,0.047-0.461,0.082-0.578,0.104v15.365h-3.256
		V109.98z"/>
	<path fill="#1570AC" d="M435.637,109.455h6.896v2.73h-6.896v8.4c0,0.909,0.07,1.662,0.211,2.257s0.35,1.062,0.629,1.399
		c0.281,0.339,0.631,0.578,1.051,0.719c0.42,0.139,0.91,0.209,1.471,0.209c0.979,0,1.768-0.11,2.361-0.332
		c0.596-0.222,1.01-0.379,1.242-0.473l0.631,2.695c-0.326,0.163-0.898,0.367-1.715,0.612s-1.75,0.367-2.801,0.367
		c-1.236,0-2.256-0.157-3.063-0.472c-0.805-0.315-1.451-0.788-1.941-1.418s-0.834-1.406-1.033-2.328
		c-0.197-0.921-0.297-1.988-0.297-3.202v-16.239l3.254-0.561V109.455z"/>
	<path fill="#1570AC" d="M461.537,127.655c-0.654-1.681-1.348-3.599-2.082-5.757c-0.736-2.158-1.406-4.404-2.014-6.738
		c-0.607,2.334-1.271,4.58-1.994,6.738c-0.725,2.158-1.412,4.076-2.066,5.757h-2.834c-1.074-2.403-2.123-5.146-3.15-8.226
		s-1.994-6.404-2.904-9.975h3.5c0.232,1.098,0.512,2.287,0.84,3.57c0.326,1.283,0.67,2.566,1.033,3.85
		c0.361,1.283,0.74,2.521,1.137,3.711c0.396,1.189,0.77,2.229,1.119,3.114c0.396-1.097,0.789-2.257,1.174-3.482
		s0.752-2.462,1.102-3.71s0.684-2.473,0.998-3.675s0.588-2.327,0.822-3.378h2.695c0.209,1.051,0.467,2.176,0.77,3.378
		s0.631,2.427,0.98,3.675s0.717,2.484,1.102,3.71s0.775,2.386,1.174,3.482c0.35-0.886,0.717-1.925,1.102-3.114
		c0.385-1.19,0.764-2.428,1.139-3.711c0.371-1.283,0.723-2.566,1.049-3.85s0.607-2.473,0.84-3.57h3.361
		c-0.91,3.57-1.879,6.895-2.906,9.975s-2.076,5.822-3.15,8.226H461.537z"/>
	<path fill="#1570AC" d="M475.467,106.165c-0.584,0-1.08-0.192-1.486-0.577c-0.41-0.385-0.613-0.904-0.613-1.558
		s0.203-1.173,0.613-1.558c0.406-0.385,0.902-0.577,1.486-0.577s1.08,0.192,1.488,0.577s0.611,0.904,0.611,1.558
		s-0.203,1.173-0.611,1.558S476.051,106.165,475.467,106.165z M477.111,127.655h-3.254v-18.2h3.254V127.655z"/>
	<path fill="#1570AC" d="M490.621,128.075c-1.469,0-2.76-0.233-3.867-0.7s-2.041-1.119-2.799-1.96
		c-0.76-0.84-1.326-1.837-1.699-2.992s-0.559-2.433-0.559-3.833c0-1.399,0.203-2.683,0.611-3.85
		c0.408-1.166,0.986-2.176,1.732-3.027c0.748-0.852,1.664-1.517,2.748-1.995c1.086-0.478,2.293-0.718,3.623-0.718
		c0.816,0,1.633,0.07,2.449,0.211c0.816,0.139,1.598,0.361,2.346,0.664l-0.736,2.766c-0.488-0.233-1.055-0.42-1.697-0.561
		c-0.641-0.14-1.324-0.21-2.047-0.21c-1.82,0-3.215,0.572-4.182,1.716c-0.969,1.143-1.453,2.812-1.453,5.004
		c0,0.98,0.109,1.879,0.332,2.695c0.223,0.817,0.572,1.518,1.051,2.1c0.477,0.584,1.09,1.033,1.838,1.348
		c0.746,0.315,1.656,0.473,2.729,0.473c0.863,0,1.646-0.081,2.346-0.244c0.699-0.164,1.248-0.339,1.645-0.525l0.455,2.729
		c-0.188,0.117-0.455,0.228-0.805,0.333c-0.35,0.104-0.746,0.197-1.189,0.279s-0.916,0.152-1.418,0.211
		C491.572,128.046,491.088,128.075,490.621,128.075z"/>
	<path fill="#1570AC" d="M505.566,117.646c0.699,0.536,1.439,1.202,2.223,1.995c0.781,0.793,1.551,1.65,2.309,2.572
		c0.76,0.922,1.477,1.855,2.154,2.8c0.676,0.945,1.246,1.826,1.715,2.643h-3.816c-0.49-0.816-1.055-1.65-1.697-2.503
		c-0.643-0.852-1.313-1.668-2.012-2.449c-0.701-0.781-1.412-1.5-2.135-2.152c-0.725-0.653-1.412-1.202-2.066-1.646v8.75h-3.254
		v-26.601l3.254-0.56v16.591c0.561-0.561,1.18-1.179,1.855-1.855c0.678-0.677,1.342-1.365,1.996-2.065
		c0.652-0.7,1.271-1.37,1.854-2.013c0.584-0.641,1.086-1.207,1.506-1.697h3.814c-0.537,0.584-1.119,1.225-1.75,1.926
		c-0.629,0.699-1.283,1.405-1.959,2.117c-0.678,0.712-1.359,1.424-2.049,2.135C506.82,116.345,506.172,117.016,505.566,117.646z"/>
	<path fill="#1570AC" d="M522.715,128.006c-2.006-0.048-3.43-0.479-4.27-1.295c-0.84-0.817-1.26-2.089-1.26-3.815v-21.841
		l3.256-0.56v21.875c0,0.537,0.045,0.979,0.139,1.33s0.246,0.63,0.455,0.84c0.211,0.21,0.49,0.368,0.84,0.473
		s0.781,0.192,1.295,0.263L522.715,128.006z"/>
	<path fill="#1570AC" d="M541.301,127.131c-0.746,0.187-1.732,0.385-2.957,0.594c-1.225,0.211-2.643,0.315-4.252,0.315
		c-1.4,0-2.578-0.204-3.535-0.612s-1.727-0.985-2.311-1.732c-0.584-0.746-1.004-1.627-1.26-2.643
		c-0.258-1.016-0.385-2.141-0.385-3.377v-10.221h3.254v9.52c0,2.218,0.352,3.805,1.051,4.761c0.699,0.957,1.879,1.435,3.535,1.435
		c0.35,0,0.711-0.012,1.084-0.035c0.373-0.022,0.725-0.052,1.051-0.087s0.625-0.07,0.893-0.104c0.268-0.035,0.461-0.076,0.578-0.123
		v-15.365h3.254V127.131z"/>
	<path fill="#1570AC" d="M546.9,109.98c0.746-0.187,1.738-0.385,2.975-0.596c1.236-0.209,2.66-0.314,4.27-0.314
		c1.447,0,2.648,0.205,3.605,0.612c0.957,0.409,1.721,0.979,2.293,1.716c0.57,0.734,0.973,1.615,1.207,2.642
		c0.232,1.027,0.35,2.159,0.35,3.396v10.22h-3.254v-9.521c0-1.119-0.076-2.076-0.229-2.869s-0.402-1.436-0.752-1.926
		s-0.816-0.846-1.4-1.066c-0.584-0.223-1.307-0.333-2.17-0.333c-0.35,0-0.711,0.012-1.084,0.034
		c-0.375,0.024-0.73,0.053-1.068,0.088s-0.643,0.076-0.91,0.123s-0.461,0.082-0.578,0.104v15.365H546.9V109.98z"/>
	<path fill="#1570AC" d="M578.4,125.836c-0.281,0.187-0.822,0.426-1.629,0.717c-0.805,0.292-1.744,0.438-2.816,0.438
		c-1.098,0-2.129-0.175-3.098-0.525c-0.969-0.35-1.814-0.893-2.537-1.627c-0.725-0.735-1.295-1.65-1.715-2.748
		c-0.42-1.096-0.631-2.402-0.631-3.92c0-1.33,0.199-2.549,0.596-3.657s0.973-2.065,1.732-2.87c0.758-0.805,1.686-1.435,2.781-1.89
		c1.098-0.455,2.334-0.683,3.711-0.683c1.516,0,2.84,0.111,3.973,0.332c1.131,0.223,2.082,0.426,2.852,0.613v16.24
		c0,2.799-0.723,4.83-2.17,6.09s-3.639,1.89-6.58,1.89c-1.143,0-2.223-0.094-3.236-0.28c-1.016-0.188-1.896-0.408-2.643-0.665
		l0.594-2.835c0.654,0.257,1.453,0.484,2.398,0.683s1.93,0.298,2.957,0.298c1.938,0,3.33-0.385,4.184-1.155
		c0.852-0.771,1.277-1.995,1.277-3.675V125.836z M578.365,112.325c-0.328-0.093-0.766-0.181-1.313-0.263
		c-0.549-0.081-1.289-0.122-2.223-0.122c-1.75,0-3.098,0.571-4.043,1.715s-1.418,2.66-1.418,4.55c0,1.051,0.135,1.949,0.402,2.695
		c0.27,0.747,0.631,1.365,1.086,1.855c0.455,0.489,0.98,0.852,1.574,1.084c0.596,0.234,1.209,0.351,1.838,0.351
		c0.863,0,1.656-0.122,2.381-0.368c0.723-0.244,1.295-0.529,1.715-0.857V112.325z"/>
</g>
</svg>
