<?xml version="1.0" encoding="utf-8"?>
<!-- Generator: Adobe Illustrator 15.0.0, SVG Export Plug-In  -->
<!DOCTYPE svg PUBLIC "-//W3C//DTD SVG 1.1//EN" "http://www.w3.org/Graphics/SVG/1.1/DTD/svg11.dtd" [
	<!ENTITY ns_flows "http://ns.adobe.com/Flows/1.0/">
]>
<svg version="1.1"
	 xmlns="http://www.w3.org/2000/svg" xmlns:xlink="http://www.w3.org/1999/xlink" xmlns:a="http://ns.adobe.com/AdobeSVGViewerExtensions/3.0/"
	 x="0px" y="0px" width="507px" height="108px" viewBox="0.207 -1.181 507 108" enable-background="new 0.207 -1.181 507 108"
	 xml:space="preserve">
<defs>
</defs>
<g>
	<defs>
		<rect id="SVGID_1_" width="499.378" height="100.073"/>
	</defs>
	<clipPath id="SVGID_3_">
		<use xlink:href="#SVGID_1_"  overflow="visible"/>
	</clipPath>
	<g clip-path="url(#SVGID_3_)">
		<defs>
			<rect id="SVGID_2_" width="499.378" height="100.073"/>
		</defs>
		<clipPath id="SVGID_4_">
			<use xlink:href="#SVGID_2_"  overflow="visible"/>
		</clipPath>
		<path clip-path="url(#SVGID_4_)" fill="#484848" d="M170.173,70.154l17.935-2.202l-7.79-63.434l-17.931,2.199l0.715,5.865
			l11.06-1.354l6.339,51.636l-11.054,1.36L170.173,70.154z M103.595,64.575l7.009-0.859l-2.467-20.088
			c-0.365-2.969-0.072-5.604,1.038-7.728c0.962-2.168,3.195-4.082,6.504-4.421c3.445-0.354,5.775,0.797,7.39,2.786
			c1.464,1.873,2.068,4.058,2.377,7.102l2.48,20.223l7.081-0.869l-2.484-20.222c-0.377-3.103-0.426-5.15,0.773-7.625
			c1.075-2.391,3.549-3.992,6.648-4.374c3.305-0.409,5.401,0.498,6.912,2.23c1.876,1.89,2.653,4.872,3.024,7.909l2.449,19.952
			l7.012-0.858l-2.484-20.227c-0.859-7.009-2.099-10.417-5.741-13.324c-3.037-2.429-6.926-2.91-10.3-2.498
			c-3.972,0.492-7.161,2.388-9.236,5.037c-1.12,1.44-1.704,2.81-2.178,3.961c-0.488-0.622-1.738-2.453-2.796-3.285
			c-2.921-2.58-6.549-3.161-9.919-2.749c-5.329,0.653-9.187,4.343-10.355,7.634l-0.636-5.191l-6.606,0.814L103.595,64.575z
			 M38.875,72.521l7.013-0.862l-2.467-20.088c-0.366-2.965-0.071-5.601,1.034-7.721c0.967-2.172,3.195-4.089,6.505-4.429
			c3.448-0.354,5.781,0.797,7.392,2.79c1.464,1.872,2.072,4.057,2.378,7.098l2.48,20.222l7.078-0.869l-2.48-20.222
			c-0.381-3.099-0.426-5.147,0.776-7.621c1.072-2.391,3.546-3.996,6.645-4.377c3.305-0.406,5.401,0.501,6.912,2.23
			c1.876,1.893,2.652,4.879,3.024,7.909l2.453,19.955l7.009-0.858l-2.48-20.223c-0.865-7.013-2.103-10.417-5.745-13.324
			c-3.037-2.436-6.926-2.913-10.297-2.498c-3.978,0.485-7.167,2.384-9.235,5.033c-1.124,1.437-1.708,2.807-2.182,3.961
			c-0.488-0.622-1.739-2.457-2.8-3.281c-2.917-2.587-6.545-3.168-9.917-2.752c-5.327,0.653-9.184,4.34-10.354,7.634l-0.637-5.188
			l-6.607,0.808L38.875,72.521z M30.443,81.29l-11.055,1.356l-6.342-51.639l11.058-1.354l-0.722-5.865L5.517,25.981l7.789,63.434
			l17.866-2.191L30.443,81.29z"/>
		<path clip-path="url(#SVGID_4_)" fill="#CCFF00" d="M168.173,69.154l17.935-2.202l-7.79-63.434l-17.931,2.199l0.715,5.865
			l11.06-1.354l6.339,51.636l-11.053,1.36L168.173,69.154z M101.595,63.575l7.009-0.859l-2.467-20.088
			c-0.365-2.969-0.072-5.604,1.038-7.728c0.962-2.168,3.195-4.082,6.504-4.421c3.445-0.354,5.775,0.797,7.39,2.786
			c1.464,1.873,2.068,4.058,2.377,7.102l2.48,20.223l7.081-0.869l-2.484-20.222c-0.377-3.103-0.426-5.15,0.773-7.625
			c1.075-2.391,3.549-3.992,6.648-4.374c3.305-0.409,5.401,0.498,6.912,2.23c1.876,1.89,2.653,4.872,3.024,7.909l2.449,19.952
			l7.012-0.858l-2.484-20.227c-0.859-7.009-2.099-10.417-5.741-13.324c-3.037-2.429-6.926-2.91-10.3-2.498
			c-3.972,0.492-7.161,2.388-9.236,5.037c-1.12,1.44-1.704,2.81-2.178,3.961c-0.488-0.622-1.738-2.453-2.796-3.285
			c-2.921-2.58-6.549-3.161-9.919-2.749c-5.329,0.653-9.187,4.343-10.355,7.634l-0.636-5.191l-6.606,0.814L101.595,63.575z
			 M36.875,71.521l7.013-0.862l-2.467-20.088c-0.366-2.965-0.071-5.601,1.034-7.72c0.967-2.172,3.195-4.089,6.505-4.429
			c3.448-0.354,5.781,0.797,7.392,2.79c1.464,1.872,2.072,4.057,2.378,7.098l2.48,20.222l7.078-0.869l-2.48-20.222
			c-0.381-3.099-0.426-5.147,0.776-7.621c1.072-2.391,3.546-3.996,6.645-4.377c3.305-0.406,5.401,0.501,6.912,2.23
			c1.876,1.893,2.652,4.879,3.024,7.909l2.453,19.955l7.009-0.858l-2.48-20.223c-0.865-7.013-2.103-10.417-5.745-13.324
			c-3.037-2.436-6.926-2.913-10.297-2.498c-3.978,0.485-7.167,2.384-9.235,5.033c-1.124,1.437-1.708,2.807-2.182,3.961
			c-0.488-0.622-1.739-2.457-2.8-3.281c-2.917-2.587-6.545-3.168-9.917-2.752c-5.327,0.653-9.184,4.34-10.354,7.634l-0.637-5.188
			l-6.607,0.808L36.875,71.521z M28.443,80.29l-11.055,1.356l-6.342-51.639l11.058-1.354l-0.722-5.865L3.517,24.981l7.789,63.434
			l17.866-2.191L28.443,80.29z"/>
		<path clip-path="url(#SVGID_4_)" fill="#484848" d="M490.281,90.216c0-1.928,1.397-3.635,3.553-3.635
			c1.649,0,2.804,0.928,3.295,2.123c0.223,0.471,0.319,1,0.302,1.532c-0.021,0.529-0.135,1.058-0.357,1.528
			c-0.515,1.176-1.632,2.045-3.198,2.045c-2.498,0-3.58-2.045-3.594-3.573V90.216z M499.378,85.055h-1.969v1.814
			c-0.471-0.986-1.776-2.116-3.82-2.116c-2.993,0-5.277,2.303-5.277,5.445c0,2.873,1.969,5.445,5.277,5.445
			c1.625,0,3.102-0.718,3.82-2.096v1.794h1.969V85.055z M484.358,95.342h1.965V85.055h-1.965V95.342z M484.358,83.423h1.965v-2.082
			h-1.965V83.423z M472.704,90.177c0-1.93,1.436-3.596,3.613-3.596c1.005,0,1.894,0.381,2.536,1.023
			c0.643,0.621,1.038,1.512,1.038,2.535c0.041,1.021-0.337,1.932-1.003,2.594c-0.64,0.664-1.566,1.076-2.571,1.076
			c-2.274,0-3.593-1.718-3.613-3.611V90.177z M481.747,81.345h-1.966v3.576v1.811c-0.415-0.811-1.704-1.979-3.803-1.979
			c-2.935,0-5.239,2.227-5.239,5.424c0,2.973,2.041,5.467,5.276,5.467c2.116,0,3.271-1.037,3.841-2.096v1.794h1.891V81.345z
			 M460.634,89.291c0.095-1.401,1.401-2.862,3.404-2.862c1.951-0.033,3.315,1.498,3.408,2.862H460.634z M469.395,90.82
			c0.167-1.722-0.341-3.329-1.551-4.56c-0.981-0.965-2.329-1.508-3.806-1.508c-3.12,0-5.428,2.512-5.428,5.463
			c0,2.725,2.081,5.428,5.448,5.428c1.038,0,2.061-0.285,2.934-0.869c0.873-0.566,1.588-1.419,2.079-2.553h-2.041
			c-0.566,1.079-1.591,1.738-2.972,1.738c-1.549,0-3.367-1.058-3.463-3.14H469.395z M441.17,95.342h1.965v-5.638
			c0-0.832,0.172-1.551,0.55-2.1c0.341-0.57,1.023-1.023,1.948-1.004c0.966,0.018,1.57,0.416,1.951,1.021
			c0.341,0.566,0.434,1.191,0.416,2.044v5.676h1.986v-5.676c0-0.869,0.055-1.44,0.471-2.082c0.381-0.622,1.117-0.983,1.988-0.983
			c0.928,0,1.478,0.32,1.835,0.853c0.454,0.584,0.564,1.437,0.564,2.288v5.601h1.968v-5.676c0-1.966-0.23-2.952-1.13-3.876
			c-0.759-0.775-1.818-1.037-2.763-1.037c-1.119,0-2.069,0.412-2.728,1.075c-0.358,0.356-0.567,0.718-0.739,1.021
			c-0.113-0.189-0.396-0.738-0.663-1.004c-0.715-0.811-1.696-1.092-2.646-1.092c-1.493,0-2.686,0.887-3.121,1.756v-1.454h-1.853
			V95.342z M436.628,95.342h1.969V85.055h-1.969V95.342z M436.628,83.423h1.969v-2.082h-1.969V83.423z M431.199,95.342h1.97v-8.761
			h1.982v-1.526h-1.982v-3.71h-1.97v3.71h-1.851v1.526h1.851V95.342z M425.922,95.342h1.969V81.345h-1.969V95.342z M423.349,85.055
			h-1.962v5.749c0,1.759-0.894,2.988-2.824,3.006c-2.02,0-2.741-1.322-2.741-3.175v-5.58h-1.966v6.033
			c0,2.134,0.849,4.538,4.157,4.556c1.838,0.018,2.993-0.831,3.483-1.889v1.587h1.853V85.055z M395.976,95.342h1.966v-5.638
			c0-0.832,0.172-1.551,0.55-2.1c0.344-0.57,1.021-1.023,1.951-1.004c0.962,0.018,1.573,0.416,1.948,1.021
			c0.34,0.566,0.437,1.191,0.416,2.044v5.676h1.982v-5.676c0-0.869,0.058-1.44,0.477-2.082c0.375-0.622,1.113-0.983,1.986-0.983
			c0.928,0,1.474,0.32,1.835,0.853c0.453,0.584,0.569,1.437,0.569,2.288v5.601h1.962v-5.676c0-1.966-0.223-2.952-1.133-3.876
			c-0.757-0.775-1.818-1.037-2.76-1.037c-1.12,0-2.063,0.412-2.728,1.075c-0.361,0.356-0.567,0.718-0.735,1.021
			c-0.113-0.189-0.398-0.738-0.663-1.004c-0.718-0.811-1.701-1.092-2.648-1.092c-1.494,0-2.687,0.887-3.12,1.756v-1.454h-1.855
			V95.342z M382.793,100.073h2.154V81.155h-2.154V100.073z M362.739,90.177c0-2.119,1.608-3.576,3.56-3.576
			c1.247,0,2.134,0.495,2.705,1.21c0.565,0.7,0.831,1.632,0.831,2.442c-0.018,1.004-0.399,1.895-1.005,2.516
			c-0.62,0.646-1.493,1.041-2.531,1.041c-2.178,0-3.56-1.684-3.56-3.611V90.177z M371.761,85.055h-1.966v1.739
			c-0.569-1.138-1.986-2.041-3.711-2.041c-2.984,0-5.312,2.264-5.312,5.483c0,3.064,2.23,5.407,5.312,5.407
			c1.859,0,3.106-0.965,3.711-2.119v1.062c0,2.306-1.779,3.577-3.497,3.577c-0.453,0-1.154-0.135-1.779-0.551
			c-0.513-0.322-0.907-0.738-1.138-1.191h-2.264c0.487,1.721,2.191,3.426,5.102,3.426c1.783,0,3.387-0.777,4.333-1.873
			c0.756-0.873,1.209-2.027,1.209-3.82V85.055z M349.329,95.342h1.962V89.61c0-1.779,0.894-2.992,2.824-3.01
			c2.004-0.02,2.726,1.306,2.726,3.161v5.58h1.981v-6.033c0-2.14-0.873-4.521-4.157-4.556c-1.838-0.023-2.993,0.828-3.483,1.887
			v-1.585h-1.853V95.342z M344.787,95.342h1.969V85.055h-1.969V95.342z M344.787,83.423h1.969v-2.082h-1.969V83.423z
			 M339.359,95.342h1.969v-8.761h1.981v-1.526h-1.981v-3.71h-1.969v3.71h-1.856v1.526h1.856V95.342z M336.294,87.738
			c-0.151-2.291-2.003-2.985-3.426-2.985c-1.872,0-3.46,1.168-3.46,3.116c0.018,1.55,1.154,2.233,2.588,2.67
			c1.837,0.604,2.617,0.948,2.631,1.965c0,0.869-0.734,1.536-1.683,1.536c-0.739,0-1.739-0.42-1.814-1.666h-1.944
			c0.088,2.346,2.112,3.27,3.741,3.27c2.044,0,3.706-1.359,3.669-3.367c-0.058-2.213-1.775-2.666-3.35-3.102
			c-1.1-0.303-1.835-0.68-1.869-1.495c-0.021-0.68,0.509-1.323,1.471-1.323c1.01-0.02,1.498,0.588,1.498,1.382H336.294z
			 M318.795,90.198c0-2.064,1.55-3.598,3.519-3.598s3.518,1.533,3.518,3.598c0,2.063-1.549,3.594-3.518,3.594
			s-3.519-1.531-3.519-3.576V90.198z M316.827,90.198c0,2.763,2.024,5.428,5.487,5.428s5.483-2.665,5.483-5.428
			c0-2.766-2.021-5.445-5.483-5.445s-5.487,2.68-5.487,5.424V90.198z M305.383,95.342h1.965v-5.81c0-0.701,0.192-1.437,0.625-1.982
			c0.419-0.55,1.134-0.949,2.179-0.949c1.023,0,1.703,0.344,2.157,0.908c0.416,0.566,0.584,1.381,0.584,2.309v5.524h1.986v-5.621
			c0-1.415-0.247-2.649-0.887-3.536c-0.659-0.906-1.684-1.432-3.291-1.432c-1.348-0.023-2.749,0.525-3.354,1.734V84.88v-3.535
			h-1.965V95.342z M292.2,100.073h2.154V81.155H292.2V100.073z M271.692,95.342h1.965V89.61c0-1.779,0.891-2.992,2.82-3.01
			c2.004-0.02,2.726,1.306,2.726,3.161v5.58h1.985v-6.033c0-2.14-0.869-4.521-4.164-4.556c-1.834-0.023-2.989,0.828-3.48,1.887
			v-1.585h-1.852V95.342z M260.113,90.177c0-2.119,1.608-3.576,3.561-3.576c1.247,0,2.137,0.495,2.703,1.21
			c0.567,0.7,0.835,1.632,0.835,2.442c-0.021,1.004-0.398,1.895-1.003,2.516c-0.625,0.646-1.498,1.041-2.535,1.041
			c-2.179,0-3.561-1.684-3.561-3.611V90.177z M269.139,85.055h-1.969v1.739c-0.563-1.138-1.986-2.041-3.707-2.041
			c-2.989,0-5.315,2.264-5.315,5.483c0,3.064,2.23,5.407,5.315,5.407c1.854,0,3.103-0.965,3.707-2.119v1.062
			c0,2.306-1.779,3.577-3.497,3.577c-0.454,0-1.155-0.135-1.78-0.551c-0.512-0.322-0.91-0.738-1.134-1.191h-2.271
			c0.491,1.721,2.192,3.426,5.106,3.426c1.779,0,3.387-0.777,4.332-1.873c0.76-0.873,1.213-2.027,1.213-3.82V85.055z
			 M254.193,95.342h1.969V85.055h-1.969V95.342z M254.193,83.423h1.969v-2.082h-1.969V83.423z M251.864,87.738
			c-0.15-2.291-2.003-2.985-3.418-2.985c-1.876,0-3.463,1.168-3.463,3.116c0.017,1.55,1.153,2.233,2.59,2.67
			c1.835,0.604,2.611,0.948,2.632,1.965c0,0.869-0.742,1.536-1.688,1.536c-0.738,0-1.741-0.42-1.813-1.666h-1.948
			c0.093,2.346,2.117,3.27,3.745,3.27c2.045,0,3.703-1.359,3.666-3.367c-0.059-2.213-1.772-2.666-3.344-3.102
			c-1.099-0.303-1.841-0.68-1.875-1.495c-0.021-0.68,0.512-1.323,1.478-1.323c1.003-0.02,1.494,0.588,1.494,1.382H251.864z
			 M234.689,89.291c0.096-1.401,1.401-2.862,3.405-2.862c1.947-0.033,3.314,1.498,3.411,2.862H234.689z M243.45,90.82
			c0.168-1.722-0.343-3.329-1.553-4.56c-0.982-0.965-2.326-1.508-3.803-1.508c-3.12,0-5.425,2.512-5.425,5.463
			c0,2.725,2.075,5.428,5.445,5.428c1.041,0,2.065-0.285,2.938-0.869c0.865-0.566,1.584-1.419,2.074-2.553h-2.04
			c-0.57,1.079-1.595,1.738-2.973,1.738c-1.549,0-3.37-1.058-3.466-3.14H243.45z M221.729,90.177c0-1.93,1.443-3.596,3.615-3.596
			c1.003,0,1.893,0.381,2.536,1.023c0.646,0.621,1.044,1.512,1.044,2.535c0.038,1.021-0.343,1.932-1.003,2.594
			c-0.646,0.664-1.574,1.076-2.577,1.076c-2.268,0-3.594-1.718-3.615-3.611V90.177z M230.772,81.345h-1.962v3.576v1.811
			c-0.419-0.811-1.704-1.979-3.803-1.979c-2.934,0-5.243,2.227-5.243,5.424c0,2.973,2.044,5.467,5.277,5.467
			c2.124,0,3.278-1.037,3.841-2.096v1.794h1.89V81.345z M216.418,90.198c-0.021,1.776-1.271,3.611-3.615,3.611
			c-2.103,0-3.505-1.662-3.505-3.633c0-1.951,1.444-3.596,3.563-3.596c2.024,0,3.557,1.59,3.557,3.596V90.198z M207.412,95.342
			h1.886v-1.776c0.667,1.227,2.028,2.078,3.787,2.078c2.955,0,5.298-2.175,5.298-5.486c0-3.426-2.554-5.404-5.219-5.404
			c-1.327,0.018-2.842,0.602-3.787,1.945v-1.626v-3.728h-1.965V95.342z M196.724,89.291c0.097-1.401,1.402-2.862,3.405-2.862
			c1.949-0.033,3.309,1.498,3.405,2.862H196.724z M205.478,90.82c0.175-1.722-0.337-3.329-1.546-4.56
			c-0.983-0.965-2.33-1.508-3.804-1.508c-3.123,0-5.428,2.512-5.428,5.463c0,2.725,2.079,5.428,5.446,5.428
			c1.044,0,2.068-0.285,2.934-0.869c0.869-0.566,1.587-1.419,2.082-2.553h-2.041c-0.57,1.079-1.594,1.738-2.975,1.738
			c-1.553,0-3.367-1.058-3.463-3.14H205.478z M182.761,95.342h1.875l2.154-7.204l2.212,7.204h1.873l3.421-10.287h-2.041
			l-2.384,7.775l-2.23-7.171h-1.646l-2.192,7.171l-2.422-7.775h-2.062L182.761,95.342z"/>
		<path clip-path="url(#SVGID_4_)" fill="#484848" d="M485.55,63.606h-13.245l6.569-17.502L485.55,63.606z M470.628,68.591h16.602
			l3.676,9.194h6.727l-15.711-38.879h-5.62l-15.971,38.879h6.725L470.628,68.591z M449.924,77.785h6.194V38.906h-6.194V77.785z
			 M418.075,44.365h6.624c4.993,0,8.095,1.735,10.146,4.099c2.153,2.629,3.15,6.205,3.15,9.938c0,8.09-4.202,13.928-13.352,13.928
			h-6.569V44.365z M411.884,77.785h12.443c13.668,0,19.811-8.136,19.811-19.491c0-5.099-1.313-9.565-4.254-13.086
			c-4.305-5.514-10.771-6.301-15.975-6.301h-12.025V77.785z M383.663,77.785h21.749v-5.456h-15.555V60.813h15.341v-5.406h-15.341
			V44.365h15.555v-5.459h-21.749V77.785z M340.956,77.785l-0.156-32.788l12.858,32.788h4.038l12.862-32.788L370.4,77.785h5.738
			V38.906h-8.466l-11.914,30.104l-12.073-30.104h-8.519v38.879H340.956z M302.634,64.915c-0.261,7.62,3.831,13.605,14.028,13.605
			c10.297,0,13.551-6.246,13.551-12.447c0-4.52-1.839-7.883-9.085-11.146c-6.991-3.15-8.043-3.621-8.043-5.411
			c0-1.838,1.684-3.048,3.415-3.048c3.052,0,3.367,2.468,3.58,3.783h9.82c-0.158-9.349-7.717-12.08-13.08-12.08
			c-6.519,0-13.609,4.147-13.609,11.977c0,7.308,6.775,10.036,9.507,11.142c5.995,2.521,7.624,3.154,7.624,5.201
			c0,1.787-1.419,3.735-3.787,3.735c-1.264,0-4.047-0.79-4.047-5.312H302.634z M273.519,38.906h-8.562v38.879h9.503l-0.206-23.433
			l14.873,23.433h8.614V38.906h-9.504l0.207,23.696L273.519,38.906z M253.393,27.345h-8.353v7.926h8.353V27.345z M241.148,27.345
			h-8.356v7.926h8.356V27.345z M228.174,38.906v23.49c0,5.728,0.684,8.458,3.883,11.978c3.208,3.467,8.355,4.146,11.193,4.146
			c4.838,0,8.356-1.629,10.878-4.198c2.467-2.522,3.882-5.409,3.882-11.926v-23.49h-9.922v23.49c0,1.525,0,3.415-0.632,4.889
			c-0.578,1.416-1.838,2.522-4.31,2.522c-2.418,0-3.683-1.209-4.362-2.734c-0.633-1.523-0.685-3.365-0.685-4.677v-23.49H228.174z
			 M189.333,77.785l-0.316-29.111l8.414,29.111h6.566l8.414-29.111l-0.316,29.111h9.135V38.906h-13.34l-7.099,25.061l-7.304-25.061
			h-13.29v38.879H189.333z"/>
	</g>
</g>
</svg>
